<?xml version="1.0" standalone="no"?>
<!DOCTYPE svg PUBLIC "-//W3C//DTD SVG 20010904//EN"
 "http://www.w3.org/TR/2001/REC-SVG-20010904/DTD/svg10.dtd">
<svg version="1.0" xmlns="http://www.w3.org/2000/svg"
 width="619.000000pt" height="852.000000pt" viewBox="0 0 619.000000 852.000000"
 preserveAspectRatio="xMidYMid meet">

<g transform="translate(0.000000,852.000000) scale(0.100000,-0.100000)"
fill="#000000" stroke="none">
<path d="M3665 8499 c-351 -64 -615 -172 -875 -359 -293 -210 -499 -444 -690
-787 -77 -138 -95 -189 -168 -457 l-57 -211 -5 -2080 c-4 -1645 -8 -2085 -18
-2102 -32 -57 -95 -67 -208 -32 -93 29 -305 136 -379 192 -91 69 -364 352
-420 436 -91 138 -207 463 -226 632 -12 105 -18 122 -56 147 -24 15 -55 17
-254 17 -244 0 -264 -4 -290 -53 -12 -21 -14 -188 -13 -951 1 -911 2 -928 24
-1041 42 -224 123 -504 173 -605 39 -79 179 -306 239 -387 66 -89 330 -357
413 -418 83 -61 263 -169 385 -231 74 -37 180 -78 295 -114 163 -51 198 -59
365 -77 453 -49 860 19 1221 203 64 33 186 105 270 160 134 88 173 120 305
253 132 133 164 172 263 321 161 242 207 342 286 620 36 127 70 264 76 305 9
54 13 636 16 2060 2 1320 7 2003 14 2037 13 66 44 93 105 93 92 0 342 -111
479 -213 110 -80 331 -309 400 -411 108 -163 227 -481 246 -659 16 -160 12
-157 302 -157 248 0 272 5 295 55 9 19 12 256 12 958 0 869 -2 940 -19 1047
-36 212 -110 469 -173 593 -45 90 -160 277 -223 363 -86 118 -381 407 -495
486 -95 66 -356 219 -415 243 -61 26 -278 85 -421 115 -141 29 -151 30 -412
29 -212 -1 -288 -5 -367 -20z m804 -628 c243 -76 444 -192 617 -354 128 -121
199 -209 261 -322 27 -49 66 -119 86 -155 51 -92 125 -325 138 -437 16 -134 9
-310 -15 -345 -42 -63 -91 -50 -241 63 -163 122 -431 257 -630 317 -165 50
-256 67 -465 88 -308 31 -695 -20 -961 -126 -227 -91 -411 -197 -576 -332 -87
-71 -121 -85 -160 -66 -57 27 -64 112 -34 360 15 115 29 184 56 264 49 144
170 393 231 473 192 254 466 453 765 556 74 26 161 50 194 55 33 5 182 7 330
6 l270 -3 134 -42z m-809 -1814 c14 -7 33 -28 42 -47 17 -33 18 -106 18 -1102
0 -1174 -1 -1190 -61 -1398 -33 -114 -108 -304 -142 -360 -96 -160 -337 -412
-487 -512 -150 -99 -359 -188 -441 -188 -53 0 -96 32 -109 80 -8 29 -10 354
-7 1118 4 1157 3 1130 57 1332 26 95 85 251 129 339 48 94 176 259 290 371
183 181 333 280 535 351 88 31 137 36 176 16z m-2873 -3789 c29 -18 100 -66
160 -106 254 -172 588 -303 909 -357 83 -14 148 -16 345 -12 235 4 251 5 417
41 95 20 205 48 245 63 128 46 428 203 574 300 182 121 234 130 269 48 33 -81
0 -405 -61 -590 -43 -132 -146 -332 -223 -435 -77 -103 -212 -241 -302 -309
-81 -61 -292 -190 -354 -216 -317 -133 -704 -147 -1061 -40 -150 45 -173 55
-320 142 -104 62 -168 109 -236 172 -106 99 -225 234 -282 319 -98 147 -211
424 -236 582 -16 98 -14 333 3 374 27 65 76 72 153 24z"/>
</g>
</svg>
